<?xml version="1.0" encoding="UTF-8"?> <svg xmlns="http://www.w3.org/2000/svg" width="100" height="100" viewBox="0 0 100 100" fill="none"><path d="M64.1712 37.3554V22.2222C64.1712 19.1011 60.8984 17.0616 58.0965 18.4366L17.7949 38.2142" stroke="#F2216C" stroke-width="5"></path><path d="M80.7836 53.6474V41.9617C80.7836 39.6327 78.8956 37.7448 76.5667 37.7448H19.2169C16.888 37.7448 15 39.6327 15 41.9617V78.227C15 80.5559 16.888 82.4439 19.2169 82.4439H76.5667C78.8956 82.4439 80.7836 80.5559 80.7836 78.227V67.4009" stroke="#F2216C" stroke-width="5"></path><path d="M63.916 59.6726C63.916 55.9463 66.9367 52.9256 70.6631 52.9256H83.6314C84.3875 52.9256 85.0005 53.5386 85.0005 54.2947V65.0505C85.0005 65.8067 84.3875 66.4197 83.6314 66.4197H70.6631C66.9367 66.4197 63.916 63.3989 63.916 59.6726Z" stroke="#F2216C" stroke-width="5"></path><path d="M70.663 62.2028C72.0603 62.2028 73.1931 61.07 73.1931 59.6727C73.1931 58.2753 72.0603 57.1425 70.663 57.1425C69.2656 57.1425 68.1328 58.2753 68.1328 59.6727C68.1328 61.07 69.2656 62.2028 70.663 62.2028Z" fill="#F2216C"></path><path d="M44.4646 46.3472H26.4206C23.103 46.3472 21.0002 49.9259 22.6693 52.8189L33.8054 72.1203C34.532 73.3806 36.3532 73.3806 37.0799 72.1203L48.2182 52.8189C49.885 49.9305 47.7822 46.3472 44.4668 46.3472H44.4646ZM33.7963 66.3321L31.3711 61.6385L25.5192 51.1726C25.1331 50.5027 25.61 49.6443 26.4184 49.6443H33.794V66.3343L33.7963 66.3321ZM45.3615 51.1703L39.5119 61.6407L37.0867 66.3321V49.642H44.4623C45.2707 49.642 45.7475 50.5004 45.3615 51.1703Z" fill="#F2216C"></path></svg> 