<?xml version="1.0" encoding="UTF-8"?> <svg xmlns="http://www.w3.org/2000/svg" width="100" height="100" viewBox="0 0 100 100" fill="none"><path d="M48.6857 56.378C47.0295 54.7159 44.9357 53.4874 42.592 52.8819C42.3908 54.2335 41.219 55.2628 39.8341 55.2628C39.7637 55.2628 39.6935 55.2608 39.6231 55.2549C38.8828 55.1983 38.2051 54.8584 37.7188 54.292C37.3165 53.8272 37.088 53.2529 37.0508 52.6494C30.754 53.7022 25.9551 59.1729 25.9551 65.7667C25.9551 73.1162 31.9121 79.0733 39.2598 79.0733C41.9806 79.0733 44.5098 78.2529 46.6172 76.8525C45.0547 74.2627 44.1543 71.2314 44.1543 67.9952C44.1545 63.5207 45.8732 59.4405 48.6857 56.378ZM33.4083 72.9034C33.1798 73.1163 32.8907 73.2198 32.6017 73.2198C32.2775 73.2198 31.9552 73.0889 31.7188 72.8312C29.9297 70.88 28.9435 68.3468 28.9435 65.7043C28.9435 64.2942 29.2188 62.925 29.7598 61.632C30.0157 61.0227 30.7168 60.7355 31.3262 60.9914C31.9356 61.2473 32.2227 61.9465 31.9668 62.5578C31.5488 63.5558 31.336 64.6144 31.336 65.7043C31.336 67.7473 32.0996 69.7043 33.4825 71.214C33.9298 71.7022 33.8966 72.458 33.4083 72.9034ZM32.9708 60.1847C32.3087 60.1847 31.7736 59.6514 31.7736 58.9893C31.7736 58.3292 32.3087 57.7939 32.9708 57.7939C33.631 57.7939 34.1662 58.329 34.1662 58.9893C34.1661 59.6515 33.631 60.1847 32.9708 60.1847ZM42.8282 56.6534C42.4493 57.5264 41.1602 58.3702 39.6192 58.3702C38.0801 58.3702 36.7911 57.5244 36.4122 56.6534C36.3223 56.4523 36.4142 56.2179 36.6173 56.128C36.8205 56.0402 37.0412 56.1378 37.1427 56.335C37.3185 56.6749 38.2892 57.3135 39.6193 57.3135C40.9533 57.3135 41.8908 56.8097 42.0978 56.335C42.1857 56.1339 42.4221 56.0402 42.6232 56.1299C42.8263 56.2179 42.9181 56.4523 42.8282 56.6534Z" fill="#F2216C"></path><path d="M25 20.2374C44.4864 13.3429 46.7851 24.1495 50.6074 28.8742C50.8925 29.2277 50.8144 29.6027 50.4531 29.4894C45.4004 27.9054 37.8945 25.9034 34.2793 24.0402C33.9785 27.8605 52.8223 30.4523 49.9121 31.9913C36.9454 36.714 27.4316 35.5734 25 20.2374Z" fill="#F2216C"></path><path d="M55.2787 26.3722C55.2026 26.1398 55.1146 25.9054 55.0072 25.669C54.9311 25.501 54.8158 25.3604 54.6811 25.2492C54.3334 24.6027 53.9779 23.9503 53.6088 23.2922C53.2866 22.714 52.5581 22.507 51.9799 22.8312C51.4038 23.1534 51.1967 23.8819 51.5209 24.4582C52.0502 25.4054 52.5542 26.3352 53.0386 27.253C53.6871 29.6457 51.6284 31.9542 48.0932 35.628C44.1322 39.7433 39.2006 44.8663 38.6401 52.3819C38.5912 53.0402 39.0854 53.6143 39.7436 53.6652C39.7748 53.6672 39.8041 53.6672 39.8334 53.6672C40.4546 53.6672 40.9799 53.1887 41.0268 52.5617C41.5248 45.9054 45.9311 41.3253 49.8178 37.2863C51.8823 35.1398 53.8823 33.0637 54.8882 30.8995C59.4214 40.2725 61.4077 47.9387 60.7964 53.7472C60.7281 54.4034 61.2047 54.9933 61.8609 55.0617C61.9039 55.0675 61.9449 55.0695 61.9879 55.0695C62.5934 55.0695 63.1129 54.6125 63.1754 53.9973C63.9094 47.0265 61.2513 37.7433 55.2787 26.3722Z" fill="#F2216C"></path><path d="M64.7266 54.4034C64.4766 55.7082 63.3398 56.6632 61.9883 56.6632C61.8887 56.6632 61.7891 56.6593 61.6895 56.6476C60.3575 56.5069 59.3398 55.4406 59.211 54.1534C52.4922 55.1827 47.3457 60.9874 47.3457 67.9952C47.3457 75.7296 53.6152 82.0009 61.3516 82.0009C69.086 82.0009 75.3555 75.7294 75.3555 67.9952C75.3555 61.4249 70.8301 55.9132 64.7266 54.4034ZM55.1172 75.4619C54.8887 75.6729 54.5977 75.7764 54.3086 75.7764C53.9863 75.7764 53.6641 75.6456 53.4277 75.3878C51.5547 73.3448 50.5215 70.6944 50.5215 67.9289C50.5215 66.4523 50.8086 65.0188 51.377 63.6672C51.6328 63.0578 52.334 62.7707 52.9433 63.0266C53.5527 63.2824 53.8398 63.9836 53.584 64.5929C53.1406 65.6496 52.9141 66.7727 52.9141 67.9289C52.9141 70.0949 53.7227 72.1711 55.1915 73.7707C55.6367 74.2588 55.6055 75.0147 55.1172 75.4619ZM54.6972 62.0578C54.0371 62.0578 53.5018 61.5227 53.5018 60.8624C53.5018 60.2022 54.037 59.6652 54.6972 59.6652C55.3593 59.6652 55.8945 60.2023 55.8945 60.8624C55.8945 61.5226 55.3593 62.0578 54.6972 62.0578ZM65.0878 58.3957C64.6913 59.3039 63.789 60.2648 61.7285 60.2648C59.9003 60.2648 58.7675 59.3038 58.3691 58.3957C58.2812 58.1926 58.375 57.9582 58.5761 57.8683C58.7792 57.7804 59.0136 57.8742 59.1015 58.0753C59.3222 58.5792 60.3182 59.1183 61.7285 59.1183C63.1406 59.1183 64.1367 58.5792 64.3573 58.0753C64.4452 57.8742 64.6796 57.7784 64.8827 57.8683C65.084 57.9582 65.1757 58.1926 65.0878 58.3957Z" fill="#F2216C"></path></svg> 