<?xml version="1.0" encoding="UTF-8"?> <svg xmlns="http://www.w3.org/2000/svg" width="100" height="100" viewBox="0 0 100 100" fill="none"><path d="M57.6096 63.9983C58.0006 63.7393 58.5422 63.9054 58.7026 64.3338L64.7832 80.5601C64.9788 81.0819 64.4861 81.6009 63.9244 81.4647L41.5365 76.0385C40.9343 75.8925 40.7916 75.1364 41.3024 74.7982L57.6096 63.9983Z" fill="#F2216C"></path><path d="M61.5349 60.4166C61.5069 60.3416 61.4926 60.2626 61.4926 60.1831V43.8297C61.4926 43.3672 61.0275 43.0347 60.5638 43.1658L41.3798 48.5895C40.9162 48.7206 40.4512 48.388 40.4512 47.9255V37.3568C40.4512 37.1407 40.5566 36.9371 40.7362 36.8062L65.7354 18.5808C66.0828 18.3275 66.5839 18.4242 66.8015 18.7866L81.9034 43.9367C82.0104 44.1149 82.0291 44.3293 81.9545 44.522L69.2399 77.3669C69.0053 77.9728 68.1079 77.9682 67.8801 77.3599L61.5349 60.4166Z" fill="#F2216C"></path><path d="M34.0526 19.9983C34.1733 19.8852 34.3317 19.816 34.5001 19.8029L57.5735 18.0026C58.2943 17.9463 58.646 18.8247 58.0705 19.2436L38.4039 33.5565C38.2218 33.6889 37.985 33.7313 37.7652 33.6707L24.8146 30.0993C24.2819 29.9524 24.1127 29.3105 24.5088 28.9395L34.0526 19.9983Z" fill="#F2216C"></path><path d="M21.209 33.693C21.2642 33.2707 21.7008 32.9956 22.1281 33.1138L35.8533 36.9103C36.1629 36.9959 36.3759 37.2669 36.3759 37.5753V52.9464C36.3759 53.4091 36.8414 53.7416 37.3052 53.6102L56.356 48.2106C56.8197 48.0792 57.2853 48.4117 57.2853 48.8744V58.6378C57.2853 58.8645 57.1691 59.0768 56.9745 59.2064L35.6066 73.4152C35.3279 73.6005 34.9521 73.5756 34.7027 73.3555L18.2328 58.8085C18.0612 58.657 17.9766 58.4356 18.0056 58.2141L21.209 33.693Z" fill="#F2216C"></path></svg> 